<svg  width="100%" height="100%" viewBox="0 0 1277 93" fill="none" xmlns="http://www.w3.org/2000/svg">
<mask id="path-1-outside-1_70_1054" maskUnits="userSpaceOnUse" x="-2" y="-2" width="1368" height="97" fill="black">
<rect fill="white" x="-2" y="-2" width="1368" height="97"/>
<path d="M111.68 86.64C111.68 86.64 93.68 92.4 62.36 92.4C28.64 92.4 0.0800005 85.56 0.0800005 48C0.0800005 10.44 28.64 3.6 62.36 3.6C94.88 3.6 111.68 9.35999 111.68 9.35999V25.44C111.56 25.44 90.56 19.56 62.48 19.56C39.92 19.56 19.28 20.28 19.28 48C19.28 73.8 36.8 76.32 62.72 76.32C91.52 76.32 111.68 70.56 111.68 70.56V86.64ZM129.64 90V-7.15256e-06H148.84V22.8C157.48 21.72 167.44 21 174.88 21C216.04 21 231.28 30.96 231.28 57V90H212.08V60.96C212.08 42.24 204.28 36.96 174.88 36.96C166.36 36.96 156.88 37.44 148.84 38.4V90H129.64ZM340.826 90V81.6C332.186 89.28 320.906 93 299.066 93C262.706 93 247.226 78.6 247.226 57C247.226 35.4 262.706 21 299.066 21C319.346 21 341.186 23.16 360.026 26.4V90H340.826ZM266.426 57C266.426 71.04 276.506 77.04 303.626 77.04C331.706 77.04 340.826 69.48 340.826 54.24V39.6C335.906 38.64 321.386 36.96 303.626 36.96C276.266 36.96 266.426 42.72 266.426 57ZM376.109 39.24V24H393.149V5.99999H412.349V24H466.589V39.24H412.349V56.04C412.349 71.52 419.549 77.04 449.789 77.04C458.909 77.04 468.989 76.44 477.509 75.48V91.08C468.269 92.28 457.709 93 449.789 93C408.269 93 393.149 82.92 393.149 57V39.24H376.109ZM664.387 9.83999V25.44C655.867 22.56 635.827 18.96 611.947 18.96C587.707 18.96 570.667 24.36 570.667 34.32C570.667 38.88 575.107 40.44 581.587 40.44H645.067C663.667 40.44 674.227 48 674.227 61.2C674.227 80.64 651.907 92.4 608.707 92.4C587.467 92.4 565.267 89.4 555.307 86.16V70.2C563.827 73.08 580.507 76.56 608.587 76.56C643.267 76.56 655.267 70.44 655.267 61.44C655.267 57.6 651.547 55.56 644.467 55.56H578.827C559.987 55.56 551.587 47.52 551.587 34.68C551.587 14.88 571.987 3.6 612.547 3.6C632.827 3.6 654.427 6.59999 664.387 9.83999ZM687.148 57C687.148 32.28 706.228 21 743.547 21C780.028 21 799.948 32.52 799.948 57C799.948 81.72 780.988 93 743.547 93C706.228 93 687.148 81.72 687.148 57ZM706.348 57C706.348 70.8 716.908 77.04 743.547 77.04C770.548 77.04 780.748 70.92 780.748 57C780.748 43.2 770.188 36.96 743.547 36.96C716.668 36.96 706.348 43.08 706.348 57ZM816.944 90V-7.15256e-06H836.144V90H816.944ZM956.882 24V87.6C948.242 90.72 925.802 93 909.242 93C870.482 93 855.242 83.04 855.242 57V24H874.442V53.04C874.442 71.76 882.242 77.04 911.402 77.04C920.162 77.04 929.642 76.56 937.682 75.6V24H956.882ZM972.828 39.24V24H989.868V5.99999H1009.07V24H1063.31V39.24H1009.07V56.04C1009.07 71.52 1016.27 77.04 1046.51 77.04C1055.63 77.04 1065.71 76.44 1074.23 75.48V91.08C1064.99 92.28 1054.43 93 1046.51 93C1004.99 93 989.868 82.92 989.868 57V39.24H972.828ZM1094.26 13.56V-7.15256e-06H1113.46V13.56H1094.26ZM1094.26 90V24H1113.46V90H1094.26ZM1132.46 57C1132.46 32.28 1151.54 21 1188.86 21C1225.34 21 1245.26 32.52 1245.26 57C1245.26 81.72 1226.3 93 1188.86 93C1151.54 93 1132.46 81.72 1132.46 57ZM1151.66 57C1151.66 70.8 1162.22 77.04 1188.86 77.04C1215.86 77.04 1226.06 70.92 1226.06 57C1226.06 43.2 1215.5 36.96 1188.86 36.96C1161.98 36.96 1151.66 43.08 1151.66 57ZM1262.26 90V26.4C1271.02 23.28 1293.34 21 1307.5 21C1348.66 21 1363.9 30.96 1363.9 57V90H1344.7V60.96C1344.7 42.24 1336.9 36.96 1307.5 36.96C1298.98 36.96 1289.5 37.44 1281.46 38.4V90H1262.26Z"/>
</mask>
<path d="M111.68 86.64L112.29 88.5448L113.68 88.0999V86.64H111.68ZM111.68 9.35999H113.68V7.93142L112.329 7.4681L111.68 9.35999ZM111.68 25.44V27.44H113.68V25.44H111.68ZM111.68 70.56H113.68V67.9085L111.131 68.637L111.68 70.56ZM111.68 86.64C111.07 84.7352 111.071 84.735 111.071 84.7349C111.071 84.7349 111.071 84.7348 111.072 84.7348C111.072 84.7348 111.071 84.7348 111.071 84.735C111.07 84.7353 111.068 84.7359 111.065 84.7369C111.059 84.7389 111.048 84.7422 111.033 84.7469C111.003 84.7562 110.956 84.7708 110.891 84.7903C110.762 84.8294 110.564 84.8882 110.298 84.9639C109.766 85.1153 108.962 85.3344 107.897 85.5988C105.765 86.1276 102.584 86.8373 98.4277 87.5487C90.1142 88.9713 77.8973 90.4 62.36 90.4V94.4C78.1427 94.4 90.5858 92.9487 99.1023 91.4913C103.361 90.7627 106.638 90.0324 108.86 89.4812C109.971 89.2055 110.818 88.9747 111.393 88.8111C111.68 88.7293 111.899 88.6644 112.049 88.619C112.124 88.5964 112.182 88.5786 112.222 88.5662C112.242 88.5599 112.258 88.555 112.269 88.5514C112.274 88.5496 112.279 88.5482 112.282 88.5471C112.284 88.5465 112.286 88.5461 112.287 88.5457C112.287 88.5455 112.288 88.5453 112.288 88.5452C112.289 88.545 112.29 88.5448 111.68 86.64ZM62.36 90.4C45.5438 90.4 30.4296 88.6756 19.5576 82.543C14.1689 79.5034 9.83328 75.3857 6.82845 69.8315C3.81642 64.2639 2.08 57.1379 2.08 48H-1.92C-1.92 57.6421 -0.0864224 65.4561 3.3103 71.7348C6.71422 78.0268 11.6261 82.6616 17.5924 86.027C29.4304 92.7044 45.4562 94.4 62.36 94.4V90.4ZM2.08 48C2.08 38.8621 3.81642 31.7361 6.82845 26.1685C9.83328 20.6143 14.1689 16.4966 19.5576 13.457C30.4296 7.3244 45.5438 5.6 62.36 5.6V1.6C45.4562 1.6 29.4304 3.29559 17.5924 9.97301C11.6261 13.3384 6.71422 17.9732 3.3103 24.2652C-0.0864224 30.5439 -1.92 38.3579 -1.92 48H2.08ZM62.36 5.6C78.5013 5.6 90.7165 7.02944 98.8717 8.45031C102.95 9.16079 106.013 9.86923 108.045 10.396C109.061 10.6594 109.819 10.8774 110.318 11.0275C110.567 11.1026 110.751 11.1607 110.87 11.199C110.93 11.2182 110.973 11.2324 111 11.2413C111.013 11.2458 111.023 11.2489 111.028 11.2507C111.03 11.2516 111.032 11.2521 111.033 11.2523C111.033 11.2524 111.033 11.2524 111.033 11.2524C111.033 11.2523 111.032 11.2522 111.032 11.2522C111.032 11.2521 111.031 11.2519 111.68 9.35999C112.329 7.4681 112.328 7.46789 112.327 7.46766C112.327 7.46755 112.326 7.4673 112.326 7.46709C112.324 7.46666 112.323 7.46615 112.321 7.46555C112.318 7.46436 112.313 7.46281 112.308 7.46093C112.296 7.45717 112.281 7.45205 112.262 7.44562C112.223 7.43275 112.168 7.41463 112.097 7.39161C111.954 7.34557 111.745 7.27991 111.471 7.19748C110.924 7.03261 110.116 6.80059 109.049 6.52398C106.915 5.97076 103.745 5.2392 99.5583 4.50968C91.1835 3.05056 78.7387 1.6 62.36 1.6V5.6ZM109.68 9.35999V25.44H113.68V9.35999H109.68ZM111.68 23.44C111.751 23.4413 111.864 23.4485 111.905 23.4527C111.932 23.456 111.978 23.4625 111.997 23.4654C112.034 23.4714 112.063 23.4772 112.074 23.4795C112.099 23.4846 112.116 23.4887 112.117 23.4888C112.121 23.4899 112.117 23.489 112.097 23.4839C112.059 23.4743 112.001 23.4594 111.915 23.4371C111.747 23.3938 111.496 23.3294 111.17 23.2475C110.517 23.0836 109.563 22.8504 108.334 22.571C105.877 22.0124 102.325 21.2696 97.8954 20.5275C89.0388 19.0438 76.6556 17.56 62.48 17.56V21.56C76.3844 21.56 88.5412 23.0162 97.2346 24.4725C101.58 25.2004 105.055 25.9276 107.447 26.4715C108.643 26.7433 109.568 26.9695 110.196 27.1272C110.51 27.206 110.751 27.268 110.917 27.3108C110.998 27.3316 111.069 27.3497 111.119 27.3624C111.143 27.3684 111.173 27.3759 111.201 27.3826C111.214 27.3856 111.241 27.3918 111.272 27.3983C111.287 27.4014 111.319 27.4077 111.358 27.4141C111.36 27.4143 111.502 27.44 111.68 27.44V23.44ZM62.48 17.56C51.3156 17.56 40.0411 17.7052 31.5891 21.5658C27.28 23.534 23.6509 26.4837 21.1251 30.8625C18.6139 35.216 17.28 40.8308 17.28 48H21.28C21.28 41.3092 22.5261 36.439 24.5899 32.8612C26.6391 29.3088 29.58 26.881 33.251 25.2042C40.7589 21.7748 51.0844 21.56 62.48 21.56V17.56ZM17.28 48C17.28 54.6645 18.4099 60.008 20.6552 64.2457C22.9173 68.515 26.2404 71.5268 30.3772 73.6196C38.4886 77.7232 49.8321 78.32 62.72 78.32V74.32C49.6879 74.32 39.3114 73.6568 32.1828 70.0504C28.6996 68.2882 26.0228 65.8325 24.1898 62.373C22.3401 58.882 21.28 54.2355 21.28 48H17.28ZM62.72 78.32C77.2507 78.32 89.6025 76.8672 98.3288 75.4128C102.693 74.6854 106.153 73.9572 108.53 73.4088C109.718 73.1346 110.635 72.9053 111.259 72.7435C111.571 72.6626 111.81 72.5986 111.973 72.5542C112.054 72.532 112.116 72.5148 112.159 72.5028C112.181 72.4968 112.197 72.4921 112.209 72.4888C112.215 72.4872 112.22 72.4859 112.223 72.4849C112.225 72.4844 112.226 72.484 112.227 72.4837C112.228 72.4836 112.228 72.4834 112.229 72.4833C112.229 72.4832 112.229 72.483 111.68 70.56C111.131 68.637 111.131 68.6369 111.131 68.6368C111.131 68.6368 111.131 68.6368 111.131 68.6368C111.131 68.6368 111.13 68.637 111.13 68.6372C111.128 68.6376 111.125 68.6384 111.122 68.6395C111.114 68.6417 111.101 68.6453 111.083 68.6502C111.048 68.6601 110.994 68.6751 110.92 68.6952C110.774 68.7352 110.551 68.7949 110.256 68.8715C109.665 69.0247 108.782 69.2454 107.63 69.5112C105.327 70.0428 101.947 70.7546 97.6712 71.4672C89.1175 72.8928 76.9893 74.32 62.72 74.32V78.32ZM109.68 70.56V86.64H113.68V70.56H109.68ZM129.64 90H127.64V92H129.64V90ZM129.64 -7.62939e-06V-2.00001H127.64V-7.62939e-06H129.64ZM148.84 -7.62939e-06H150.84V-2.00001H148.84V-7.62939e-06ZM148.84 22.8H146.84V25.0656L149.088 24.7846L148.84 22.8ZM231.28 90V92H233.28V90H231.28ZM212.08 90H210.08V92H212.08V90ZM148.84 38.4L148.603 36.4141L146.84 36.6246V38.4H148.84ZM148.84 90V92H150.84V90H148.84ZM131.64 90V-7.62939e-06H127.64V90H131.64ZM129.64 1.99999H148.84V-2.00001H129.64V1.99999ZM146.84 -7.62939e-06V22.8H150.84V-7.62939e-06H146.84ZM149.088 24.7846C157.667 23.7121 167.542 23 174.88 23V19C167.337 19 157.292 19.7279 148.592 20.8154L149.088 24.7846ZM174.88 23C195.407 23 208.998 25.5058 217.435 30.9184C225.634 36.1787 229.28 44.4122 229.28 57H233.28C233.28 43.5478 229.305 33.7813 219.595 27.5516C210.121 21.4742 195.512 19 174.88 19V23ZM229.28 57V90H233.28V57H229.28ZM231.28 88H212.08V92H231.28V88ZM214.08 90V60.96H210.08V90H214.08ZM214.08 60.96C214.08 51.3759 212.084 44.4854 205.595 40.2636C202.461 38.2239 198.427 36.9144 193.415 36.1032C188.396 35.2909 182.275 34.96 174.88 34.96V38.96C182.185 38.96 188.063 39.2891 192.776 40.0518C197.495 40.8156 200.924 41.9961 203.414 43.6164C208.176 46.7146 210.08 51.8241 210.08 60.96H214.08ZM174.88 34.96C166.296 34.96 156.735 35.4431 148.603 36.4141L149.077 40.3859C157.024 39.4369 166.424 38.96 174.88 38.96V34.96ZM146.84 38.4V90H150.84V38.4H146.84ZM148.84 88H129.64V92H148.84V88ZM340.826 90H338.826V92H340.826V90ZM340.826 81.6H342.826V77.1463L339.497 80.1052L340.826 81.6ZM360.026 26.4H362.026V24.7146L360.365 24.4289L360.026 26.4ZM360.026 90V92H362.026V90H360.026ZM340.826 39.6H342.826V37.9525L341.209 37.637L340.826 39.6ZM342.826 90V81.6H338.826V90H342.826ZM339.497 80.1052C331.385 87.3159 320.687 91 299.066 91V95C321.124 95 332.986 91.2441 342.154 83.0948L339.497 80.1052ZM299.066 91C281.102 91 268.638 87.435 260.709 81.499C252.874 75.6332 249.226 67.2706 249.226 57H245.226C245.226 68.3294 249.317 77.9668 258.312 84.701C267.213 91.365 280.67 95 299.066 95V91ZM249.226 57C249.226 46.7294 252.874 38.3668 260.709 32.501C268.638 26.565 281.102 23 299.066 23V19C280.67 19 267.213 22.6349 258.312 29.299C249.317 36.0332 245.226 45.6706 245.226 57H249.226ZM299.066 23C319.217 23 340.943 25.1475 359.687 28.3711L360.365 24.4289C341.429 21.1724 319.474 19 299.066 19V23ZM358.026 26.4V90H362.026V26.4H358.026ZM360.026 88H340.826V92H360.026V88ZM264.426 57C264.426 60.7455 265.098 64.1012 266.664 67.0041C268.239 69.9235 270.646 72.2498 273.891 74.0369C280.273 77.5521 290.015 79.04 303.626 79.04V75.04C290.116 75.04 281.258 73.5278 275.82 70.5331C273.155 69.0652 271.347 67.259 270.185 65.1047C269.013 62.9338 268.426 60.2745 268.426 57H264.426ZM303.626 79.04C317.747 79.04 327.55 77.1584 333.852 73.0277C340.37 68.7553 342.826 62.3105 342.826 54.24H338.826C338.826 61.4095 336.721 66.3647 331.659 69.6823C326.381 73.1416 317.584 75.04 303.626 75.04V79.04ZM342.826 54.24V39.6H338.826V54.24H342.826ZM341.209 37.637C336.131 36.6462 321.477 34.96 303.626 34.96V38.96C321.294 38.96 335.681 40.6338 340.443 41.563L341.209 37.637ZM303.626 34.96C289.908 34.96 280.161 36.3848 273.804 39.8714C270.567 41.6469 268.179 43.9715 266.623 46.9081C265.079 49.8238 264.426 53.2068 264.426 57H268.426C268.426 53.6532 269.003 50.9612 270.158 48.7807C271.302 46.621 273.084 44.8281 275.727 43.3786C281.13 40.4152 289.983 38.96 303.626 38.96V34.96ZM376.109 39.24H374.109V41.24H376.109V39.24ZM376.109 24V22H374.109V24H376.109ZM393.149 24V26H395.149V24H393.149ZM393.149 5.99999V3.99999H391.149V5.99999H393.149ZM412.349 5.99999H414.349V3.99999H412.349V5.99999ZM412.349 24H410.349V26H412.349V24ZM466.589 24H468.589V22H466.589V24ZM466.589 39.24V41.24H468.589V39.24H466.589ZM412.349 39.24V37.24H410.349V39.24H412.349ZM477.509 75.48H479.509V73.242L477.285 73.4926L477.509 75.48ZM477.509 91.08L477.767 93.0633L479.509 92.8371V91.08H477.509ZM393.149 39.24H395.149V37.24H393.149V39.24ZM378.109 39.24V24H374.109V39.24H378.109ZM376.109 26H393.149V22H376.109V26ZM395.149 24V5.99999H391.149V24H395.149ZM393.149 7.99999H412.349V3.99999H393.149V7.99999ZM410.349 5.99999V24H414.349V5.99999H410.349ZM412.349 26H466.589V22H412.349V26ZM464.589 24V39.24H468.589V24H464.589ZM466.589 37.24H412.349V41.24H466.589V37.24ZM410.349 39.24V56.04H414.349V39.24H410.349ZM410.349 56.04C410.349 60.0408 410.81 63.5916 412.107 66.6355C413.426 69.7334 415.564 72.197 418.708 74.0645C424.813 77.6913 434.694 79.04 449.789 79.04V75.04C434.645 75.04 425.806 73.6287 420.751 70.6255C418.314 69.178 416.763 67.3591 415.787 65.0682C414.788 62.7234 414.349 59.7792 414.349 56.04H410.349ZM449.789 79.04C458.987 79.04 469.142 78.4355 477.733 77.4674L477.285 73.4926C468.837 74.4445 458.832 75.04 449.789 75.04V79.04ZM475.509 75.48V91.08H479.509V75.48H475.509ZM477.252 89.0967C468.085 90.2871 457.612 91 449.789 91V95C457.807 95 468.453 94.2729 477.767 93.0633L477.252 89.0967ZM449.789 91C429.082 91 415.432 88.4643 406.98 83.0371C398.766 77.7624 395.149 69.5293 395.149 57H391.149C391.149 70.3907 395.093 80.1576 404.819 86.4029C414.307 92.4957 428.976 95 449.789 95V91ZM395.149 57V39.24H391.149V57H395.149ZM393.149 37.24H376.109V41.24H393.149V37.24ZM664.387 9.84H666.387V8.38744L665.006 7.9381L664.387 9.84ZM664.387 25.44L663.746 27.3347L666.387 28.2272V25.44H664.387ZM555.307 86.16H553.307V87.6126L554.688 88.0619L555.307 86.16ZM555.307 70.2L555.947 68.3053L553.307 67.4128V70.2H555.307ZM662.387 9.84V25.44H666.387V9.84H662.387ZM665.027 23.5453C656.242 20.5757 635.973 16.96 611.947 16.96V20.96C635.681 20.96 655.491 24.5443 663.746 27.3347L665.027 23.5453ZM611.947 16.96C599.718 16.96 589.141 18.3174 581.546 21.0208C574.114 23.6665 568.667 27.9636 568.667 34.32H572.667C572.667 30.7164 575.74 27.3335 582.888 24.7892C589.873 22.3026 599.936 20.96 611.947 20.96V16.96ZM568.667 34.32C568.667 35.7992 569.032 37.1444 569.79 38.2984C570.542 39.4419 571.6 40.2777 572.802 40.8789C575.145 42.0502 578.254 42.44 581.587 42.44V38.44C578.439 38.44 576.089 38.0498 574.591 37.3011C573.874 36.9423 573.417 36.5331 573.133 36.1016C572.857 35.6806 572.667 35.1208 572.667 34.32H568.667ZM581.587 42.44H645.067V38.44H581.587V42.44ZM645.067 42.44C654.138 42.44 660.961 44.29 665.461 47.4985C669.869 50.6414 672.227 55.2081 672.227 61.2H676.227C676.227 53.9919 673.305 48.1786 667.783 44.2415C662.353 40.37 654.596 38.44 645.067 38.44V42.44ZM672.227 61.2C672.227 69.957 667.281 77.1616 656.788 82.2934C646.204 87.4696 630.177 90.4 608.707 90.4V94.4C630.437 94.4 647.169 91.4504 658.546 85.8866C670.013 80.2784 676.227 71.883 676.227 61.2H672.227ZM608.707 90.4C587.57 90.4 565.605 87.4067 555.926 84.2581L554.688 88.0619C564.929 91.3933 587.364 94.4 608.707 94.4V90.4ZM557.307 86.16V70.2H553.307V86.16H557.307ZM554.666 72.0947C563.448 75.0631 580.356 78.56 608.587 78.56V74.56C580.657 74.56 564.206 71.0969 555.947 68.3053L554.666 72.0947ZM608.587 78.56C625.986 78.56 637.941 77.0324 645.613 74.2556C649.461 72.8625 652.371 71.1065 654.332 68.9424C656.334 66.7335 657.267 64.1843 657.267 61.44H653.267C653.267 63.1957 652.7 64.7865 651.368 66.2564C649.995 67.771 647.738 69.2325 644.251 70.4944C637.253 73.0276 625.868 74.56 608.587 74.56V78.56ZM657.267 61.44C657.267 58.7117 655.867 56.6065 653.48 55.3042C651.234 54.0794 648.14 53.56 644.467 53.56V57.56C647.873 57.56 650.18 58.0606 651.564 58.8158C652.807 59.4935 653.267 60.3283 653.267 61.44H657.267ZM644.467 53.56H578.827V57.56H644.467V53.56ZM578.827 53.56C569.648 53.56 563.362 51.5955 559.402 48.382C555.513 45.2259 553.587 40.6352 553.587 34.68H549.587C549.587 41.5648 551.861 47.4141 556.882 51.488C561.831 55.5045 569.165 57.56 578.827 57.56V53.56ZM553.587 34.68C553.587 25.6461 558.158 18.4989 567.781 13.489C577.533 8.41147 592.395 5.6 612.547 5.6V1.6C592.138 1.6 576.521 4.42852 565.933 9.94103C555.216 15.5211 549.587 23.9139 549.587 34.68H553.587ZM612.547 5.6C632.712 5.6 654.082 8.59098 663.768 11.7419L665.006 7.9381C654.772 4.60901 632.942 1.6 612.547 1.6V5.6ZM689.148 57C689.148 45.2554 693.623 36.9319 702.414 31.4249C711.374 25.8129 725.019 23 743.547 23V19C724.756 19 710.201 21.8271 700.291 28.0351C690.212 34.3481 685.148 44.0246 685.148 57H689.148ZM743.547 23C761.64 23 775.296 25.8679 784.37 31.5178C793.292 37.0726 797.948 45.4119 797.948 57H801.948C801.948 44.1081 796.643 34.4474 786.485 28.1222C776.479 21.8921 761.935 19 743.547 19V23ZM797.948 57C797.948 68.7491 793.499 77.071 784.725 82.5758C775.781 88.1867 762.137 91 743.547 91V95C762.398 95 776.954 92.1733 786.85 85.9642C796.916 79.649 801.948 69.9709 801.948 57H797.948ZM743.547 91C725.019 91 711.374 88.1871 702.414 82.5751C693.623 77.0681 689.148 68.7446 689.148 57H685.148C685.148 69.9754 690.212 79.6519 700.291 85.9649C710.201 92.1729 724.756 95 743.547 95V91ZM704.347 57C704.347 60.705 705.057 64.0362 706.666 66.9261C708.281 69.8263 710.729 72.1512 713.993 73.9472C720.428 77.488 730.159 79.04 743.547 79.04V75.04C730.296 75.04 721.427 73.472 715.922 70.4428C713.216 68.9538 711.359 67.1312 710.161 64.9802C708.958 62.8188 708.347 60.195 708.347 57H704.347ZM743.547 79.04C757.105 79.04 766.844 77.5206 773.239 73.991C776.487 72.1981 778.904 69.8709 780.488 66.9601C782.065 64.0637 782.747 60.7217 782.747 57H778.747C778.747 60.2383 778.155 62.8813 776.975 65.0474C775.804 67.1991 773.982 69.0119 771.306 70.489C765.851 73.4994 756.99 75.04 743.547 75.04V79.04ZM782.747 57C782.747 53.295 782.038 49.9638 780.429 47.0739C778.814 44.1737 776.366 41.8488 773.102 40.0527C766.667 36.512 756.936 34.96 743.547 34.96V38.96C756.799 38.96 765.668 40.528 771.173 43.5572C773.879 45.0462 775.736 46.8688 776.934 49.0198C778.137 51.1812 778.747 53.805 778.747 57H782.747ZM743.547 34.96C730.048 34.96 720.312 36.4799 713.903 40.0079C710.649 41.7995 708.221 44.125 706.626 47.0349C705.039 49.9314 704.347 53.2748 704.347 57H708.347C708.347 53.7652 708.946 51.1236 710.134 48.9576C711.314 46.805 713.146 44.9905 715.832 43.5121C721.303 40.5001 730.167 38.96 743.547 38.96V34.96ZM816.944 90H814.944V92H816.944V90ZM816.944 -7.62939e-06V-2.00001H814.944V-7.62939e-06H816.944ZM836.144 -7.62939e-06H838.144V-2.00001H836.144V-7.62939e-06ZM836.144 90V92H838.144V90H836.144ZM818.944 90V-7.62939e-06H814.944V90H818.944ZM816.944 1.99999H836.144V-2.00001H816.944V1.99999ZM834.144 -7.62939e-06V90H838.144V-7.62939e-06H834.144ZM836.144 88H816.944V92H836.144V88ZM956.882 24H958.882V22H956.882V24ZM956.882 87.6L957.561 89.4811L958.882 89.0042V87.6H956.882ZM855.242 24V22H853.242V24H855.242ZM874.442 24H876.442V22H874.442V24ZM937.682 75.6L937.919 77.5859L939.682 77.3754V75.6H937.682ZM937.682 24V22H935.682V24H937.682ZM954.882 24V87.6H958.882V24H954.882ZM956.203 85.7189C952.128 87.1904 944.569 88.5225 935.814 89.4819C927.119 90.4348 917.442 91 909.242 91V95C917.602 95 927.425 94.4252 936.25 93.4581C945.016 92.4975 952.997 91.1296 957.561 89.4811L956.203 85.7189ZM909.242 91C889.93 91 876.946 88.4972 868.813 83.0987C860.894 77.8419 857.242 69.5947 857.242 57H853.242C853.242 70.4453 857.211 80.1982 866.601 86.4313C875.778 92.5228 889.795 95 909.242 95V91ZM857.242 57V24H853.242V57H857.242ZM855.242 26H874.442V22H855.242V26ZM872.442 24V53.04H876.442V24H872.442ZM872.442 53.04C872.442 62.6232 874.437 69.5112 880.892 73.7337C887.046 77.7593 896.865 79.04 911.402 79.04V75.04C896.779 75.04 888.118 73.6807 883.082 70.3863C878.347 67.2888 876.442 62.1768 876.442 53.04H872.442ZM911.402 79.04C920.225 79.04 929.786 78.557 937.919 77.5859L937.445 73.6141C929.498 74.563 920.099 75.04 911.402 75.04V79.04ZM939.682 75.6V24H935.682V75.6H939.682ZM937.682 26H956.882V22H937.682V26ZM972.828 39.24H970.828V41.24H972.828V39.24ZM972.828 24V22H970.828V24H972.828ZM989.868 24V26H991.868V24H989.868ZM989.868 5.99999V3.99999H987.868V5.99999H989.868ZM1009.07 5.99999H1011.07V3.99999H1009.07V5.99999ZM1009.07 24H1007.07V26H1009.07V24ZM1063.31 24H1065.31V22H1063.31V24ZM1063.31 39.24V41.24H1065.31V39.24H1063.31ZM1009.07 39.24V37.24H1007.07V39.24H1009.07ZM1074.23 75.48H1076.23V73.242L1074 73.4926L1074.23 75.48ZM1074.23 91.08L1074.49 93.0633L1076.23 92.8371V91.08H1074.23ZM989.868 39.24H991.868V37.24H989.868V39.24ZM974.828 39.24V24H970.828V39.24H974.828ZM972.828 26H989.868V22H972.828V26ZM991.868 24V5.99999H987.868V24H991.868ZM989.868 7.99999H1009.07V3.99999H989.868V7.99999ZM1007.07 5.99999V24H1011.07V5.99999H1007.07ZM1009.07 26H1063.31V22H1009.07V26ZM1061.31 24V39.24H1065.31V24H1061.31ZM1063.31 37.24H1009.07V41.24H1063.31V37.24ZM1007.07 39.24V56.04H1011.07V39.24H1007.07ZM1007.07 56.04C1007.07 60.0408 1007.53 63.5916 1008.83 66.6355C1010.14 69.7334 1012.28 72.197 1015.43 74.0645C1021.53 77.6913 1031.41 79.04 1046.51 79.04V75.04C1031.36 75.04 1022.52 73.6287 1017.47 70.6255C1015.03 69.178 1013.48 67.3591 1012.51 65.0682C1011.51 62.7234 1011.07 59.7792 1011.07 56.04H1007.07ZM1046.51 79.04C1055.71 79.04 1065.86 78.4355 1074.45 77.4674L1074 73.4926C1065.56 74.4445 1055.55 75.04 1046.51 75.04V79.04ZM1072.23 75.48V91.08H1076.23V75.48H1072.23ZM1073.97 89.0967C1064.8 90.2871 1054.33 91 1046.51 91V95C1054.53 95 1065.17 94.2729 1074.49 93.0633L1073.97 89.0967ZM1046.51 91C1025.8 91 1012.15 88.4643 1003.7 83.0371C995.484 77.7624 991.868 69.5293 991.868 57H987.868C987.868 70.3907 991.812 80.1576 1001.54 86.4029C1011.03 92.4957 1025.7 95 1046.51 95V91ZM991.868 57V39.24H987.868V57H991.868ZM989.868 37.24H972.828V41.24H989.868V37.24ZM1094.26 13.56H1092.26V15.56H1094.26V13.56ZM1094.26 -7.62939e-06V-2.00001H1092.26V-7.62939e-06H1094.26ZM1113.46 -7.62939e-06H1115.46V-2.00001H1113.46V-7.62939e-06ZM1113.46 13.56V15.56H1115.46V13.56H1113.46ZM1094.26 90H1092.26V92H1094.26V90ZM1094.26 24V22H1092.26V24H1094.26ZM1113.46 24H1115.46V22H1113.46V24ZM1113.46 90V92H1115.46V90H1113.46ZM1096.26 13.56V-7.62939e-06H1092.26V13.56H1096.26ZM1094.26 1.99999H1113.46V-2.00001H1094.26V1.99999ZM1111.46 -7.62939e-06V13.56H1115.46V-7.62939e-06H1111.46ZM1113.46 11.56H1094.26V15.56H1113.46V11.56ZM1096.26 90V24H1092.26V90H1096.26ZM1094.26 26H1113.46V22H1094.26V26ZM1111.46 24V90H1115.46V24H1111.46ZM1113.46 88H1094.26V92H1113.46V88ZM1134.46 57C1134.46 45.2554 1138.94 36.9319 1147.73 31.4249C1156.69 25.8129 1170.33 23 1188.86 23V19C1170.07 19 1155.51 21.8271 1145.6 28.0351C1135.52 34.3481 1130.46 44.0246 1130.46 57H1134.46ZM1188.86 23C1206.95 23 1220.61 25.8679 1229.68 31.5178C1238.6 37.0726 1243.26 45.4119 1243.26 57H1247.26C1247.26 44.1081 1241.96 34.4474 1231.8 28.1222C1221.79 21.8921 1207.25 19 1188.86 19V23ZM1243.26 57C1243.26 68.7491 1238.81 77.071 1230.04 82.5758C1221.09 88.1867 1207.45 91 1188.86 91V95C1207.71 95 1222.27 92.1733 1232.16 85.9642C1242.23 79.649 1247.26 69.9709 1247.26 57H1243.26ZM1188.86 91C1170.33 91 1156.69 88.1871 1147.73 82.5751C1138.94 77.0681 1134.46 68.7446 1134.46 57H1130.46C1130.46 69.9754 1135.52 79.6519 1145.6 85.9649C1155.51 92.1729 1170.07 95 1188.86 95V91ZM1149.66 57C1149.66 60.705 1150.37 64.0362 1151.98 66.9261C1153.59 69.8263 1156.04 72.1512 1159.31 73.9472C1165.74 77.488 1175.47 79.04 1188.86 79.04V75.04C1175.61 75.04 1166.74 73.472 1161.23 70.4428C1158.53 68.9538 1156.67 67.1312 1155.47 64.9802C1154.27 62.8188 1153.66 60.195 1153.66 57H1149.66ZM1188.86 79.04C1202.42 79.04 1212.16 77.5206 1218.55 73.991C1221.8 72.1981 1224.22 69.8709 1225.8 66.9601C1227.38 64.0637 1228.06 60.7217 1228.06 57H1224.06C1224.06 60.2383 1223.47 62.8813 1222.29 65.0474C1221.12 67.1991 1219.3 69.0119 1216.62 70.489C1211.16 73.4994 1202.3 75.04 1188.86 75.04V79.04ZM1228.06 57C1228.06 53.295 1227.35 49.9638 1225.74 47.0739C1224.13 44.1737 1221.68 41.8488 1218.41 40.0527C1211.98 36.512 1202.25 34.96 1188.86 34.96V38.96C1202.11 38.96 1210.98 40.528 1216.49 43.5572C1219.19 45.0462 1221.05 46.8688 1222.25 49.0198C1223.45 51.1812 1224.06 53.805 1224.06 57H1228.06ZM1188.86 34.96C1175.36 34.96 1165.62 36.4799 1159.22 40.0079C1155.96 41.7995 1153.53 44.125 1151.94 47.0349C1150.35 49.9314 1149.66 53.2748 1149.66 57H1153.66C1153.66 53.7652 1154.26 51.1236 1155.45 48.9576C1156.63 46.805 1158.46 44.9905 1161.14 43.5121C1166.62 40.5001 1175.48 38.96 1188.86 38.96V34.96ZM1262.26 90H1260.26V92H1262.26V90ZM1262.26 26.4L1261.59 24.5159L1260.26 24.9893V26.4H1262.26ZM1363.9 90V92H1365.9V90H1363.9ZM1344.7 90H1342.7V92H1344.7V90ZM1281.46 38.4L1281.22 36.4141L1279.46 36.6246V38.4H1281.46ZM1281.46 90V92H1283.46V90H1281.46ZM1264.26 90V26.4H1260.26V90H1264.26ZM1262.93 28.2841C1267.07 26.8083 1274.64 25.4765 1283.08 24.5172C1291.46 23.564 1300.51 23 1307.5 23V19C1300.33 19 1291.13 19.576 1282.63 20.5428C1274.18 21.5035 1266.2 22.8717 1261.59 24.5159L1262.93 28.2841ZM1307.5 23C1328.02 23 1341.62 25.5058 1350.05 30.9184C1358.25 36.1787 1361.9 44.4122 1361.9 57H1365.9C1365.9 43.5478 1361.92 33.7813 1352.21 27.5516C1342.74 21.4742 1328.13 19 1307.5 19V23ZM1361.9 57V90H1365.9V57H1361.9ZM1363.9 88H1344.7V92H1363.9V88ZM1346.7 90V60.96H1342.7V90H1346.7ZM1346.7 60.96C1346.7 51.3759 1344.7 44.4854 1338.21 40.2636C1335.08 38.2239 1331.04 36.9144 1326.03 36.1032C1321.01 35.2909 1314.89 34.96 1307.5 34.96V38.96C1314.8 38.96 1320.68 39.2891 1325.39 40.0518C1330.11 40.8156 1333.54 41.9961 1336.03 43.6164C1340.79 46.7146 1342.7 51.8241 1342.7 60.96H1346.7ZM1307.5 34.96C1298.91 34.96 1289.35 35.4431 1281.22 36.4141L1281.69 40.3859C1289.64 39.4369 1299.04 38.96 1307.5 38.96V34.96ZM1279.46 38.4V90H1283.46V38.4H1279.46ZM1281.46 88H1262.26V92H1281.46V88Z" fill="white" mask="url(#path-1-outside-1_70_1054)"/>
</svg>
