<svg xmlns="http://www.w3.org/2000/svg" viewBox="0 0 20 20" fill="none">
  <path fill-rule="evenodd" clip-rule="evenodd" d="M10 4.16667C8.4529 4.16667 6.96917 4.78125 5.87521 5.87521C4.78125 6.96917 4.16667 8.4529 4.16667 10V10.975C4.4275 10.8833 4.70833 10.8333 5 10.8333H6.66667C6.88768 10.8333 7.09964 10.9211 7.25592 11.0774C7.4122 11.2337 7.5 11.4457 7.5 11.6667V16.6667C7.5 16.8877 7.4122 17.0996 7.25592 17.2559C7.09964 17.4122 6.88768 17.5 6.66667 17.5H5C4.33696 17.5 3.70107 17.2366 3.23223 16.7678C2.76339 16.2989 2.5 15.663 2.5 15V10C2.5 8.01088 3.29018 6.10322 4.6967 4.6967C6.10322 3.29018 8.01088 2.5 10 2.5C11.9891 2.5 13.8968 3.29018 15.3033 4.6967C16.7098 6.10322 17.5 8.01088 17.5 10V15C17.5 15.663 17.2366 16.2989 16.7678 16.7678C16.2989 17.2366 15.663 17.5 15 17.5H13.3333C13.1123 17.5 12.9004 17.4122 12.7441 17.2559C12.5878 17.0996 12.5 16.8877 12.5 16.6667V11.6667C12.5 11.4457 12.5878 11.2337 12.7441 11.0774C12.9004 10.9211 13.1123 10.8333 13.3333 10.8333H15C15.2917 10.8333 15.5725 10.8833 15.8333 10.975V10C15.8333 8.4529 15.2188 6.96917 14.1248 5.87521C13.0308 4.78125 11.5471 4.16667 10 4.16667Z" fill="currentColor"/>
</svg>