<svg xmlns="http://www.w3.org/2000/svg" viewBox="0 0 24 24" fill="none">
  <path d="M24 21.3333C24 22.806 22.806 24 21.3333 24H2.66667C1.194 24 0 22.806 0 21.3333V2.66667C0 1.194 1.194 0 2.66667 0H21.3333C22.806 0 24 1.194 24 2.66667V21.3333Z" fill="#3B88C3"/>
  <path d="M10.9743 7.45032H9.75494C8.76294 7.45032 8.34961 6.72699 8.34961 6.02432C8.34961 5.30099 8.86628 4.59766 9.75494 4.59766H12.6896C13.5789 4.59766 14.0749 5.23832 14.0749 6.06499V17.827C14.0749 18.861 13.4136 19.439 12.5243 19.439C11.6356 19.439 10.9743 18.861 10.9743 17.827V7.45032Z" fill="white"/>
</svg>