
<svg xmlns="http://www.w3.org/2000/svg" viewBox="0 0 24 24" fill="none">
  <path d="M3.00056 12.0006C3.00056 7.02999 7.02999 3.00056 12.0006 3.00056C16.9711 3.00056 21.0006 7.02999 21.0006 12.0006C21.0006 16.9711 16.9711 21.0006 12.0006 21.0006C7.02999 21.0006 3.00056 16.9711 3.00056 12.0006ZM12.0006 1.71484C6.32027 1.71484 1.71484 6.32027 1.71484 12.0006C1.71484 17.6808 6.32027 22.2863 12.0006 22.2863C17.6808 22.2863 22.2863 17.6808 22.2863 12.0006C22.2863 6.32027 17.6808 1.71484 12.0006 1.71484ZM13.2863 7.07199C13.287 6.91591 13.2308 6.76492 13.1284 6.64718C13.0259 6.52944 12.8841 6.453 12.7294 6.43211C12.5748 6.41123 12.4178 6.44733 12.2878 6.53369C12.1577 6.62004 12.0636 6.75075 12.0228 6.90141L12.0194 6.91341L12.0006 6.97256C11.9834 7.02656 11.9534 7.1097 11.9106 7.21427C11.8248 7.42427 11.6877 7.71742 11.4828 8.04227C11.074 8.69199 10.4106 9.44627 9.3777 9.91513C9.22244 9.9856 9.10152 10.1149 9.04157 10.2745C9.01188 10.3535 8.99805 10.4376 9.00087 10.522C9.00368 10.6064 9.02309 10.6894 9.05799 10.7663C9.09288 10.8432 9.14258 10.9124 9.20423 10.9701C9.26589 11.0278 9.33831 11.0727 9.41734 11.1024C9.57696 11.1624 9.75386 11.1565 9.90913 11.086C10.7144 10.7192 11.4286 10.1789 12.0006 9.5037V16.5006C12.0006 16.6711 12.0683 16.8346 12.1888 16.9551C12.3094 17.0757 12.4729 17.1434 12.6434 17.1434C12.8139 17.1434 12.9774 17.0757 13.098 16.9551C13.2185 16.8346 13.2863 16.6711 13.2863 16.5006V7.07199Z" fill="currentColor"/>
</svg>