<svg xmlns="http://www.w3.org/2000/svg"  width="100%" height="100%" viewBox="0 0 24 24" fill="none">
  <path d="M9.00098 10C11.2101 10 13.001 8.20914 13.001 6C13.001 3.79086 11.2101 2 9.00098 2C6.79184 2 5.00098 3.79086 5.00098 6C5.00098 8.20914 6.79184 10 9.00098 10Z" fill="currentColor"/>
  <path d="M9.00098 21.002C12.867 21.002 16.001 19.2111 16.001 17.002C16.001 14.7928 12.867 13.002 9.00098 13.002C5.13498 13.002 2.00098 14.7928 2.00098 17.002C2.00098 19.2111 5.13498 21.002 9.00098 21.002Z" fill="currentColor"/>
  <path d="M20.9997 17.0006C20.9997 18.6576 18.9637 20.0006 16.4787 20.0006C17.2107 19.2006 17.7147 18.1956 17.7147 17.0026C17.7147 15.8076 17.2097 14.8026 16.4757 14.0016C18.9617 14.0006 20.9997 15.3446 20.9997 17.0006ZM17.9997 6.00063C18 6.48335 17.8839 6.95901 17.6611 7.38724C17.4383 7.81546 17.1154 8.18361 16.72 8.46041C16.3245 8.73721 15.8681 8.91449 15.3895 8.9772C14.9108 9.03991 14.4241 8.9862 13.9707 8.82063C14.4587 7.96096 14.7148 6.98915 14.7137 6.00063C14.7137 4.97563 14.4437 4.01363 13.9717 3.18163C14.4251 3.01626 14.9117 2.96271 15.3902 3.02552C15.8686 3.08833 16.3249 3.26564 16.7203 3.54242C17.1156 3.8192 17.4383 4.18726 17.6611 4.61538C17.8838 5.0435 18 5.51803 17.9997 6.00063Z" fill="currentColor"/>
</svg>