<svg xmlns="http://www.w3.org/2000/svg" viewBox="0 0 16 14" fill="none">
  <path d="M15.7018 7.36237C15.7668 7.32627 15.8209 7.27348 15.8585 7.20945C15.8962 7.14542 15.916 7.07249 15.916 6.9982C15.916 6.92392 15.8962 6.85099 15.8585 6.78696C15.8209 6.72293 15.7668 6.67013 15.7018 6.63404L13.8002 5.57737C10.0526 3.49566 6.10208 1.80242 2.01018 0.524036L1.45602 0.350703C1.39371 0.331394 1.32774 0.326985 1.26341 0.33783C1.19909 0.348675 1.13821 0.37447 1.08568 0.413141C1.03314 0.451811 0.990421 0.502276 0.960954 0.560473C0.931486 0.618669 0.916093 0.682971 0.916016 0.748203V5.53987C0.915871 5.64672 0.956784 5.74955 1.0303 5.82709C1.10381 5.90464 1.20431 5.95098 1.31102 5.95654L2.15268 6.0007C4.20391 6.10826 6.24262 6.38645 8.24768 6.83237L8.44602 6.87654C8.49018 6.8857 8.50935 6.90404 8.52018 6.9182C8.5366 6.94159 8.54507 6.96964 8.54435 6.9982C8.54435 7.03154 8.53352 7.05987 8.52018 7.0782C8.50935 7.09237 8.49018 7.1107 8.44602 7.11987L8.24768 7.16404C6.24231 7.60991 4.20335 7.88836 2.15185 7.99654L1.31018 8.0407C1.20377 8.04646 1.1036 8.09277 1.03028 8.17012C0.956966 8.24746 0.916074 8.34996 0.916016 8.45654V13.2482C0.916012 13.3136 0.931414 13.3781 0.960975 13.4365C0.990536 13.4949 1.03342 13.5454 1.08617 13.5841C1.13891 13.6229 1.20003 13.6486 1.26458 13.6593C1.32912 13.67 1.39527 13.6653 1.45768 13.6457L2.01102 13.4724C6.10263 12.1939 10.0529 10.5007 13.8002 8.41904L15.7018 7.36237Z" fill="currentColor"/>
</svg>