
<svg xmlns="http://www.w3.org/2000/svg" viewBox="0 0 24 24" fill="none">
  <path d="M3.00056 12.0006C3.00056 7.02999 7.02999 3.00056 12.0006 3.00056C16.9711 3.00056 21.0006 7.02999 21.0006 12.0006C21.0006 16.9711 16.9711 21.0006 12.0006 21.0006C7.02999 21.0006 3.00056 16.9711 3.00056 12.0006ZM12.0006 1.71484C6.32027 1.71484 1.71484 6.32027 1.71484 12.0006C1.71484 17.6808 6.32027 22.2863 12.0006 22.2863C17.6808 22.2863 22.2863 17.6808 22.2863 12.0006C22.2863 6.32027 17.6808 1.71484 12.0006 1.71484ZM9.02456 8.48199C9.1565 8.5889 9.32538 8.63926 9.49433 8.62208C9.66328 8.60489 9.81856 8.52156 9.92627 8.39027L9.93056 8.38513L9.95627 8.35684C10.1372 8.16507 10.3387 7.99375 10.5571 7.84599C11.0755 7.48692 11.6897 7.29192 12.3203 7.28627C13.612 7.28627 14.572 8.2437 14.572 9.32199C14.572 10.4003 13.612 11.3577 12.3203 11.3577H11.3577C11.1872 11.3577 11.0237 11.4254 10.9031 11.546C10.7826 11.6665 10.7148 11.8301 10.7148 12.0006C10.7148 12.1711 10.7826 12.3346 10.9031 12.4551C11.0237 12.5757 11.1872 12.6434 11.3577 12.6434H12.3203C13.612 12.6434 14.572 13.6008 14.572 14.6791C14.572 15.7574 13.612 16.7148 12.3203 16.7148C11.5814 16.7148 10.9823 16.4406 10.5571 16.1551C10.3384 16.0074 10.1367 15.8361 9.95542 15.6443L9.9297 15.6151L9.92713 15.6126V15.6117C9.81949 15.4794 9.6637 15.3953 9.49403 15.3778C9.32437 15.3604 9.15472 15.4111 9.02242 15.5187C8.89011 15.6263 8.80598 15.7821 8.78854 15.9518C8.7711 16.1215 8.82177 16.2911 8.92942 16.4234H8.93027L8.93113 16.4251L8.93284 16.4277L8.93799 16.4337L8.95341 16.4508L9.00313 16.5074C9.04484 16.5543 9.10399 16.6151 9.18056 16.69C9.33227 16.8366 9.55342 17.0294 9.83799 17.2214C10.408 17.6046 11.254 18.0006 12.3203 18.0006C14.2266 18.0006 15.8577 16.5597 15.8577 14.6791C15.8577 13.5606 15.28 12.5971 14.4117 12.0006C15.28 11.404 15.8577 10.4406 15.8577 9.32199C15.8577 7.44142 14.2266 6.00056 12.3203 6.00056C11.254 6.00056 10.408 6.39656 9.83884 6.78056C9.53435 6.9861 9.254 7.22532 9.00313 7.4937L8.95341 7.54942L8.93799 7.56742L8.93284 7.57342L8.93113 7.57599L8.92942 7.5777C8.87623 7.64327 8.83647 7.71867 8.81242 7.7996C8.78838 7.88053 8.7805 7.9654 8.78926 8.04937C8.79801 8.13334 8.82323 8.21477 8.86345 8.289C8.90368 8.36323 8.95899 8.4288 9.02456 8.48199Z" fill="currentColor"/>
</svg>