<svg xmlns="http://www.w3.org/2000/svg"  width="100%" height="100%" viewBox="0 0 20 20" fill="none">
  <path d="M20 17.7778C20 19.005 19.005 20 17.7778 20H2.22222C0.995 20 0 19.005 0 17.7778V2.22222C0 0.995 0.995 0 2.22222 0H17.7778C19.005 0 20 0.995 20 2.22222V17.7778Z" fill="#3B88C3"/>
  <path d="M13.394 6.79285C13.394 7.8784 12.9295 8.82562 11.9817 9.4284C13.2217 9.99729 14.0828 11.1512 14.0828 12.5117C14.0828 14.579 12.1884 16.319 9.74229 16.319C7.19284 16.319 5.6084 14.4412 5.6084 13.0806C5.6084 12.409 6.31506 11.9267 6.93506 11.9267C8.10618 11.9267 7.83062 13.9423 9.77729 13.9423C10.6728 13.9423 11.3967 13.2534 11.3967 12.3401C11.3967 9.9284 8.46784 11.7028 8.46784 9.67007C8.46784 7.86174 10.9134 9.08451 10.9134 7.17229C10.9134 6.51729 10.449 6.01785 9.6734 6.01785C8.03729 6.01785 8.26118 7.70563 7.08951 7.70563C6.3834 7.70563 5.97007 7.0684 5.97007 6.43118C5.97007 5.08785 7.81284 3.64062 9.72506 3.64062C12.2062 3.64062 13.394 5.44951 13.394 6.79285Z" fill="white"/>
</svg>