<svg xmlns="http://www.w3.org/2000/svg"  width="100%" height="100%" viewBox="0 0 24 24" fill="none">
  <path d="M24 21.3333C24 22.806 22.806 24 21.3333 24H2.66667C1.194 24 0 22.806 0 21.3333V2.66667C0 1.194 1.194 0 2.66667 0H21.3333C22.806 0 24 1.194 24 2.66667V21.3333Z" fill="#3B88C3"/>
  <path d="M15.3904 16.6045C16.3004 16.6045 17.0037 17.0179 17.0037 17.9685C17.0037 18.9199 16.3004 19.3332 15.515 19.3332H8.61102C7.70169 19.3332 6.99902 18.9199 6.99902 17.9685C6.99902 17.5352 7.26769 17.1625 7.47436 16.9145C9.18969 14.8685 11.0504 13.0079 12.6217 10.7339C12.9937 10.1965 13.345 9.55519 13.345 8.81119C13.345 7.96385 12.7044 7.21985 11.8564 7.21985C9.47902 7.21985 10.6164 10.5685 8.63169 10.5685C7.63969 10.5685 7.12236 9.86585 7.12236 9.05919C7.12236 6.45519 9.43769 4.36719 11.9804 4.36719C14.5237 4.36719 16.569 6.04185 16.569 8.66652C16.569 11.5392 13.3657 14.3925 11.6084 16.6039L15.3904 16.6045Z" fill="white"/>
</svg>