
<svg xmlns="http://www.w3.org/2000/svg" viewBox="0 0 24 24" fill="none">
  <path d="M3.00056 12.0006C3.00056 7.02999 7.02999 3.00056 12.0006 3.00056C16.9711 3.00056 21.0006 7.02999 21.0006 12.0006C21.0006 16.9711 16.9711 21.0006 12.0006 21.0006C7.02999 21.0006 3.00056 16.9711 3.00056 12.0006ZM12.0006 1.71484C6.32027 1.71484 1.71484 6.32027 1.71484 12.0006C1.71484 17.6808 6.32027 22.2863 12.0006 22.2863C17.6808 22.2863 22.2863 17.6808 22.2863 12.0006C22.2863 6.32027 17.6808 1.71484 12.0006 1.71484ZM8.8317 8.55056C8.96777 8.6525 9.13869 8.69639 9.30704 8.67261C9.47539 8.64884 9.62747 8.55934 9.72999 8.4237L9.73341 8.41941L9.75827 8.38941C9.7817 8.36027 9.81942 8.31827 9.87142 8.26342C10.0133 8.11527 10.1682 7.98015 10.3343 7.8597C10.7414 7.56313 11.3071 7.28627 11.9997 7.28627C12.568 7.28627 13.1131 7.51204 13.5149 7.9139C13.9168 8.31576 14.1426 8.86081 14.1426 9.42913C14.1426 10.0866 13.8974 10.4877 13.4988 10.828C13.1268 11.1451 12.6537 11.386 12.0803 11.6791L11.704 11.872C11.0011 12.2371 10.204 12.6906 9.5937 13.4148C8.96456 14.1606 8.57199 15.1446 8.57199 16.5006C8.57199 16.8554 8.85999 17.1434 9.21484 17.1434H14.7863C14.9568 17.1434 15.1203 17.0757 15.2408 16.9551C15.3614 16.8346 15.4291 16.6711 15.4291 16.5006C15.4291 16.3301 15.3614 16.1665 15.2408 16.046C15.1203 15.9254 14.9568 15.8577 14.7863 15.8577H9.89799C9.99227 15.1351 10.2503 14.6303 10.5768 14.2428C11.0114 13.7286 11.608 13.3711 12.2963 13.0128L12.6211 12.8474C13.1954 12.556 13.834 12.232 14.3328 11.8068C14.9783 11.2566 15.4291 10.5126 15.4283 9.42913C15.4283 8.51982 15.067 7.64775 14.4241 7.00476C13.7811 6.36178 12.909 6.00056 11.9997 6.00056C10.9523 6.00056 10.1268 6.42056 9.57742 6.81999C9.2813 7.03639 9.01097 7.28602 8.7717 7.56399L8.70313 7.6497L8.70227 7.65141C8.65167 7.719 8.61487 7.7959 8.59398 7.87771C8.5731 7.95953 8.56854 8.04465 8.58055 8.12823C8.59257 8.2118 8.62094 8.29219 8.66403 8.3648C8.70712 8.43741 8.7641 8.49997 8.8317 8.55056Z" fill="currentColor"/>
</svg>